# xmcd CD database file
#
# Track frame offsets:
#	150
#	36931
#	59619
#	90423
#	128335
#
# Disc length: 2340 seconds
#
# Revision: 3
# Processed by: cddbd v1.4PL0 Copyright (c) Steve Scherf et al.
# Submitted via: CDex 1.51
#
DISCID=37092205
DTITLE=Tony Williams - Spring
DYEAR=1965
DGENRE=Jazz
TTITLE0=Extras
TTITLE1=Echo
TTITLE2=From Before
TTITLE3=Love Song
TTITLE4=Tee
EXTD=1966, 1987 Blue Note/EMI  CDP 7 46135-2\n\nRecorded August 12, 1965\n\nTony Williams  -drums\nWayne Shorter  -tenor sax (1, 3, 5]\nSam Rivers  -tenor sax (1, 3, 4, 5]\nHerbie Hancock  -piano (3, 4, 5]\nGary Peacock  -bass (1, 3, 4, 5]\n YEAR: 1965
EXTT0=
EXTT1=
EXTT2=
EXTT3=
EXTT4=
PLAYORDER=
